<svg height="496pt" viewBox="0 0 496 496" width="496pt" xmlns="http://www.w3.org/2000/svg" xmlns:xlink="http://www.w3.org/1999/xlink"><linearGradient id="a" gradientUnits="userSpaceOnUse" x1="248" x2="248" y1="496" y2="0"><stop offset="0" stop-color="#9f2fff"/><stop offset="1" stop-color="#0bb1d3"/></linearGradient><path d="m495.992188 265.039062c-.558594 39.128907-32.855469 70.960938-71.992188 70.960938h-40v-16h40c30.441406 0 55.550781-24.761719 55.992188-55.183594.335937-23.960937-14.632813-45-38.144532-53.59375-8.589844-3.132812-17.273437-3.855468-26.304687-2.40625-.535157 5.878906-1.558594 11.695313-3.167969 17.359375l-15.390625-4.34375c2-7.078125 3.015625-14.425781 3.015625-21.832031 0-44.113281-35.886719-80-80-80-33.207031 0-62.480469 19.984375-74.542969 50.902344l-14.90625-5.8125c2.089844-5.363282 4.65625-10.410156 7.5625-15.1875-15.152343-18.75-37.929687-29.902344-62.113281-29.902344-41.40625 0-75.566406 31.632812-79.59375 72h31.59375v16h-56c-30.871094 0-56 25.128906-56 56s25.128906 56 56 56h72.496094c3.984375-31.519531 31.199218-56 64.070312-56 17.242188 0 33.464844 6.71875 45.65625 18.910156l1.777344 1.777344 1.777344-1.777344c12.191406-12.191406 28.40625-18.910156 45.65625-18.910156 35.597656 0 64.566406 28.96875 64.566406 64.566406 0 17.242188-6.71875 33.464844-18.910156 45.65625l-93.089844 93.089844-93.089844-93.089844c-5.496094-5.496094-9.902344-11.847656-13.117187-18.910156l14.558593-6.625c2.417969 5.3125 5.738282 10.097656 9.863282 14.222656l81.785156 81.777344 81.777344-81.777344c9.167968-9.167968 14.222656-21.375 14.222656-34.34375 0-26.773437-21.792969-48.566406-48.566406-48.566406-12.96875 0-25.167969 5.054688-34.34375 14.222656l-13.089844 13.089844-13.089844-13.089844c-9.167968-9.167968-21.375-14.222656-34.34375-14.222656-26.773437 0-48.566406 21.527344-48.566406 48v8h-32v128h-16v-128h-16v88h-16v-88h-8c-2.703125 0-5.367188-.175781-8-.472656v32.472656h-16v-36.199219c-27.921875-9.914062-48-36.519531-48-67.800781 0-39.703125 32.296875-72 72-72h8.40625c4.089844-49.199219 45.355469-88 95.59375-88 27.617188 0 53.761719 12.03125 71.894531 32.558594 17.832031-20.375 43.753907-32.558594 72.105469-32.558594 17.496094 0 33.863281 4.777344 48 12.984375v-84.984375h16v96.648438c6.0625 5.449218 11.480469 11.582031 16 18.398437v-59.046875h16v104h-.40625c.015625.191406.015625.390625.03125.585938 5.519531-.675782 10.976562-.539063 16.375.109374v-48.695312h16v52.457031c29.609375 11.117188 48.425781 37.957031 47.992188 68.582031zm-175.992188-129.039062v16c26.472656 0 48 21.527344 48 48h16c0-35.289062-28.710938-64-64-64zm-160 72v-16h-16v16zm16 0h16v-16h-16zm48 0v-16h-16v16zm-176 192h16v-16h-16zm32 56h16v-16h-16zm32 40h16v-16h-16zm336-384h-16v16h16zm-32-56h-16v16h16zm-32-56h-16v16h16zm0 0" fill="url(#a)"/></svg>