<?xml version="1.0" encoding="iso-8859-1"?>
<!-- Generator: Adobe Illustrator 19.0.0, SVG Export Plug-In . SVG Version: 6.00 Build 0)  -->
<svg version="1.1" id="Capa_1" xmlns="http://www.w3.org/2000/svg" xmlns:xlink="http://www.w3.org/1999/xlink" x="0px" y="0px"
	 viewBox="0 0 480.048 480.048" style="enable-background:new 0 0 480.048 480.048;" xml:space="preserve">
<linearGradient id="SVGID_1_" gradientUnits="userSpaceOnUse" x1="-26.851" y1="555.965" x2="-26.851" y2="621.645" gradientTransform="matrix(8 0 0 -8 454.8321 4941)">
	<stop  offset="0" style="stop-color:#006DF0"/>
	<stop  offset="1" style="stop-color:#00E7F0"/>
</linearGradient>
<path style="fill:url(#SVGID_1_);" d="M456.024,240h-432c-13.255,0-24-10.745-24-24l0,0v-64c0-13.255,10.745-24,24-24h432
	c13.255,0,24,10.745,24,24v64C480.024,229.255,469.279,240,456.024,240L456.024,240z M24.024,144c-4.418,0-8,3.582-8,8v64
	c0,4.418,3.582,8,8,8h432c4.418,0,8-3.582,8-8v-64c0-4.418-3.582-8-8-8H24.024z"/>
<g>
	
		<linearGradient id="SVGID_2_" gradientUnits="userSpaceOnUse" x1="-37.3576" y1="555.965" x2="-37.3576" y2="621.645" gradientTransform="matrix(8 0 0 -8 454.8321 4941)">
		<stop  offset="0" style="stop-color:#006DF0"/>
		<stop  offset="1" style="stop-color:#00E7F0"/>
	</linearGradient>
	<path style="fill:url(#SVGID_2_);" d="M256.024,176H94.552c-4.418-12.497-18.131-19.046-30.627-14.627
		C51.428,165.791,44.879,179.503,49.297,192c4.418,12.497,18.131,19.046,30.627,14.627c6.835-2.416,12.211-7.793,14.627-14.627
		h161.472c4.418,0,8-3.582,8-8S260.442,176,256.024,176z M72.024,192c-4.418,0-8-3.582-8-8s3.582-8,8-8s8,3.582,8,8
		S76.442,192,72.024,192z"/>
	
		<linearGradient id="SVGID_3_" gradientUnits="userSpaceOnUse" x1="-11.851" y1="555.965" x2="-11.851" y2="621.645" gradientTransform="matrix(8 0 0 -8 454.8321 4941)">
		<stop  offset="0" style="stop-color:#006DF0"/>
		<stop  offset="1" style="stop-color:#00E7F0"/>
	</linearGradient>
	<path style="fill:url(#SVGID_3_);" d="M352.024,160h16v16h-16V160z"/>
	
		<linearGradient id="SVGID_4_" gradientUnits="userSpaceOnUse" x1="-7.851" y1="555.965" x2="-7.851" y2="621.645" gradientTransform="matrix(8 0 0 -8 454.8321 4941)">
		<stop  offset="0" style="stop-color:#006DF0"/>
		<stop  offset="1" style="stop-color:#00E7F0"/>
	</linearGradient>
	<path style="fill:url(#SVGID_4_);" d="M384.024,160h16v16h-16V160z"/>
	
		<linearGradient id="SVGID_5_" gradientUnits="userSpaceOnUse" x1="-3.851" y1="555.965" x2="-3.851" y2="621.645" gradientTransform="matrix(8 0 0 -8 454.8321 4941)">
		<stop  offset="0" style="stop-color:#006DF0"/>
		<stop  offset="1" style="stop-color:#00E7F0"/>
	</linearGradient>
	<path style="fill:url(#SVGID_5_);" d="M416.024,160h16v16h-16V160z"/>
	
		<linearGradient id="SVGID_6_" gradientUnits="userSpaceOnUse" x1="-15.851" y1="555.965" x2="-15.851" y2="621.645" gradientTransform="matrix(8 0 0 -8 454.8321 4941)">
		<stop  offset="0" style="stop-color:#006DF0"/>
		<stop  offset="1" style="stop-color:#00E7F0"/>
	</linearGradient>
	<path style="fill:url(#SVGID_6_);" d="M320.024,160h16v16h-16V160z"/>
	
		<linearGradient id="SVGID_7_" gradientUnits="userSpaceOnUse" x1="-19.851" y1="555.965" x2="-19.851" y2="621.645" gradientTransform="matrix(8 0 0 -8 454.8321 4941)">
		<stop  offset="0" style="stop-color:#006DF0"/>
		<stop  offset="1" style="stop-color:#00E7F0"/>
	</linearGradient>
	<path style="fill:url(#SVGID_7_);" d="M288.024,160h16v16h-16V160z"/>
	
		<linearGradient id="SVGID_8_" gradientUnits="userSpaceOnUse" x1="-11.851" y1="555.965" x2="-11.851" y2="621.645" gradientTransform="matrix(8 0 0 -8 454.8321 4941)">
		<stop  offset="0" style="stop-color:#006DF0"/>
		<stop  offset="1" style="stop-color:#00E7F0"/>
	</linearGradient>
	<path style="fill:url(#SVGID_8_);" d="M352.024,192h16v16h-16V192z"/>
	
		<linearGradient id="SVGID_9_" gradientUnits="userSpaceOnUse" x1="-7.851" y1="555.965" x2="-7.851" y2="621.645" gradientTransform="matrix(8 0 0 -8 454.8321 4941)">
		<stop  offset="0" style="stop-color:#006DF0"/>
		<stop  offset="1" style="stop-color:#00E7F0"/>
	</linearGradient>
	<path style="fill:url(#SVGID_9_);" d="M384.024,192h16v16h-16V192z"/>
	
		<linearGradient id="SVGID_10_" gradientUnits="userSpaceOnUse" x1="-3.851" y1="555.965" x2="-3.851" y2="621.645" gradientTransform="matrix(8 0 0 -8 454.8321 4941)">
		<stop  offset="0" style="stop-color:#006DF0"/>
		<stop  offset="1" style="stop-color:#00E7F0"/>
	</linearGradient>
	<path style="fill:url(#SVGID_10_);" d="M416.024,192h16v16h-16V192z"/>
	
		<linearGradient id="SVGID_11_" gradientUnits="userSpaceOnUse" x1="-15.851" y1="555.965" x2="-15.851" y2="621.645" gradientTransform="matrix(8 0 0 -8 454.8321 4941)">
		<stop  offset="0" style="stop-color:#006DF0"/>
		<stop  offset="1" style="stop-color:#00E7F0"/>
	</linearGradient>
	<path style="fill:url(#SVGID_11_);" d="M320.024,192h16v16h-16V192z"/>
	
		<linearGradient id="SVGID_12_" gradientUnits="userSpaceOnUse" x1="-19.851" y1="555.965" x2="-19.851" y2="621.645" gradientTransform="matrix(8 0 0 -8 454.8321 4941)">
		<stop  offset="0" style="stop-color:#006DF0"/>
		<stop  offset="1" style="stop-color:#00E7F0"/>
	</linearGradient>
	<path style="fill:url(#SVGID_12_);" d="M288.024,192h16v16h-16V192z"/>
</g>
<linearGradient id="SVGID_13_" gradientUnits="userSpaceOnUse" x1="-26.851" y1="555.965" x2="-26.851" y2="621.645" gradientTransform="matrix(8 0 0 -8 454.8321 4941)">
	<stop  offset="0" style="stop-color:#006DF0"/>
	<stop  offset="1" style="stop-color:#00E7F0"/>
</linearGradient>
<path style="fill:url(#SVGID_13_);" d="M456.024,112h-432c-13.255,0-24-10.745-24-24V24c0-13.255,10.745-24,24-24h432
	c13.255,0,24,10.745,24,24v64C480.024,101.255,469.279,112,456.024,112z M24.024,16c-4.418,0-8,3.582-8,8v64c0,4.418,3.582,8,8,8
	h432c4.418,0,8-3.582,8-8V24c0-4.418-3.582-8-8-8H24.024z"/>
<g>
	
		<linearGradient id="SVGID_14_" gradientUnits="userSpaceOnUse" x1="-37.3576" y1="555.965" x2="-37.3576" y2="621.645" gradientTransform="matrix(8 0 0 -8 454.8321 4941)">
		<stop  offset="0" style="stop-color:#006DF0"/>
		<stop  offset="1" style="stop-color:#00E7F0"/>
	</linearGradient>
	<path style="fill:url(#SVGID_14_);" d="M256.024,48H94.552c-4.418-12.497-18.131-19.046-30.627-14.627S44.879,51.503,49.297,64
		c4.418,12.497,18.131,19.046,30.627,14.627C86.759,76.211,92.136,70.835,94.552,64h161.472c4.418,0,8-3.582,8-8
		S260.442,48,256.024,48z M72.024,64c-4.418,0-8-3.582-8-8s3.582-8,8-8s8,3.582,8,8S76.442,64,72.024,64z"/>
	
		<linearGradient id="SVGID_15_" gradientUnits="userSpaceOnUse" x1="-11.851" y1="555.965" x2="-11.851" y2="621.645" gradientTransform="matrix(8 0 0 -8 454.8321 4941)">
		<stop  offset="0" style="stop-color:#006DF0"/>
		<stop  offset="1" style="stop-color:#00E7F0"/>
	</linearGradient>
	<path style="fill:url(#SVGID_15_);" d="M352.024,32h16v16h-16V32z"/>
	
		<linearGradient id="SVGID_16_" gradientUnits="userSpaceOnUse" x1="-7.851" y1="555.965" x2="-7.851" y2="621.645" gradientTransform="matrix(8 0 0 -8 454.8321 4941)">
		<stop  offset="0" style="stop-color:#006DF0"/>
		<stop  offset="1" style="stop-color:#00E7F0"/>
	</linearGradient>
	<path style="fill:url(#SVGID_16_);" d="M384.024,32h16v16h-16V32z"/>
	
		<linearGradient id="SVGID_17_" gradientUnits="userSpaceOnUse" x1="-3.851" y1="555.965" x2="-3.851" y2="621.645" gradientTransform="matrix(8 0 0 -8 454.8321 4941)">
		<stop  offset="0" style="stop-color:#006DF0"/>
		<stop  offset="1" style="stop-color:#00E7F0"/>
	</linearGradient>
	<path style="fill:url(#SVGID_17_);" d="M416.024,32h16v16h-16V32z"/>
	
		<linearGradient id="SVGID_18_" gradientUnits="userSpaceOnUse" x1="-15.851" y1="555.965" x2="-15.851" y2="621.645" gradientTransform="matrix(8 0 0 -8 454.8321 4941)">
		<stop  offset="0" style="stop-color:#006DF0"/>
		<stop  offset="1" style="stop-color:#00E7F0"/>
	</linearGradient>
	<path style="fill:url(#SVGID_18_);" d="M320.024,32h16v16h-16V32z"/>
	
		<linearGradient id="SVGID_19_" gradientUnits="userSpaceOnUse" x1="-19.851" y1="555.965" x2="-19.851" y2="621.645" gradientTransform="matrix(8 0 0 -8 454.8321 4941)">
		<stop  offset="0" style="stop-color:#006DF0"/>
		<stop  offset="1" style="stop-color:#00E7F0"/>
	</linearGradient>
	<path style="fill:url(#SVGID_19_);" d="M288.024,32h16v16h-16V32z"/>
	
		<linearGradient id="SVGID_20_" gradientUnits="userSpaceOnUse" x1="-11.851" y1="555.965" x2="-11.851" y2="621.645" gradientTransform="matrix(8 0 0 -8 454.8321 4941)">
		<stop  offset="0" style="stop-color:#006DF0"/>
		<stop  offset="1" style="stop-color:#00E7F0"/>
	</linearGradient>
	<path style="fill:url(#SVGID_20_);" d="M352.024,64h16v16h-16V64z"/>
	
		<linearGradient id="SVGID_21_" gradientUnits="userSpaceOnUse" x1="-7.851" y1="555.965" x2="-7.851" y2="621.645" gradientTransform="matrix(8 0 0 -8 454.8321 4941)">
		<stop  offset="0" style="stop-color:#006DF0"/>
		<stop  offset="1" style="stop-color:#00E7F0"/>
	</linearGradient>
	<path style="fill:url(#SVGID_21_);" d="M384.024,64h16v16h-16V64z"/>
	
		<linearGradient id="SVGID_22_" gradientUnits="userSpaceOnUse" x1="-3.851" y1="555.965" x2="-3.851" y2="621.645" gradientTransform="matrix(8 0 0 -8 454.8321 4941)">
		<stop  offset="0" style="stop-color:#006DF0"/>
		<stop  offset="1" style="stop-color:#00E7F0"/>
	</linearGradient>
	<path style="fill:url(#SVGID_22_);" d="M416.024,64h16v16h-16V64z"/>
	
		<linearGradient id="SVGID_23_" gradientUnits="userSpaceOnUse" x1="-15.851" y1="555.965" x2="-15.851" y2="621.645" gradientTransform="matrix(8 0 0 -8 454.8321 4941)">
		<stop  offset="0" style="stop-color:#006DF0"/>
		<stop  offset="1" style="stop-color:#00E7F0"/>
	</linearGradient>
	<path style="fill:url(#SVGID_23_);" d="M320.024,64h16v16h-16V64z"/>
	
		<linearGradient id="SVGID_24_" gradientUnits="userSpaceOnUse" x1="-19.851" y1="555.965" x2="-19.851" y2="621.645" gradientTransform="matrix(8 0 0 -8 454.8321 4941)">
		<stop  offset="0" style="stop-color:#006DF0"/>
		<stop  offset="1" style="stop-color:#00E7F0"/>
	</linearGradient>
	<path style="fill:url(#SVGID_24_);" d="M288.024,64h16v16h-16V64z"/>
	
		<linearGradient id="SVGID_25_" gradientUnits="userSpaceOnUse" x1="-37.3576" y1="555.965" x2="-37.3576" y2="621.645" gradientTransform="matrix(8 0 0 -8 454.8321 4941)">
		<stop  offset="0" style="stop-color:#006DF0"/>
		<stop  offset="1" style="stop-color:#00E7F0"/>
	</linearGradient>
	<path style="fill:url(#SVGID_25_);" d="M256.024,304H94.552c-4.418-12.497-18.131-19.046-30.627-14.627S44.879,307.503,49.297,320
		c4.418,12.497,18.131,19.046,30.627,14.627c6.835-2.416,12.211-7.793,14.627-14.627h161.472c4.418,0,8-3.582,8-8
		S260.442,304,256.024,304z M72.024,320c-4.418,0-8-3.582-8-8s3.582-8,8-8s8,3.582,8,8S76.442,320,72.024,320z"/>
	
		<linearGradient id="SVGID_26_" gradientUnits="userSpaceOnUse" x1="-11.851" y1="555.965" x2="-11.851" y2="621.645" gradientTransform="matrix(8 0 0 -8 454.8321 4941)">
		<stop  offset="0" style="stop-color:#006DF0"/>
		<stop  offset="1" style="stop-color:#00E7F0"/>
	</linearGradient>
	<path style="fill:url(#SVGID_26_);" d="M352.024,288h16v16h-16V288z"/>
	
		<linearGradient id="SVGID_27_" gradientUnits="userSpaceOnUse" x1="-7.851" y1="555.965" x2="-7.851" y2="621.645" gradientTransform="matrix(8 0 0 -8 454.8321 4941)">
		<stop  offset="0" style="stop-color:#006DF0"/>
		<stop  offset="1" style="stop-color:#00E7F0"/>
	</linearGradient>
	<path style="fill:url(#SVGID_27_);" d="M384.024,288h16v16h-16V288z"/>
	
		<linearGradient id="SVGID_28_" gradientUnits="userSpaceOnUse" x1="-3.851" y1="555.965" x2="-3.851" y2="621.645" gradientTransform="matrix(8 0 0 -8 454.8321 4941)">
		<stop  offset="0" style="stop-color:#006DF0"/>
		<stop  offset="1" style="stop-color:#00E7F0"/>
	</linearGradient>
	<path style="fill:url(#SVGID_28_);" d="M416.024,288h16v16h-16V288z"/>
	
		<linearGradient id="SVGID_29_" gradientUnits="userSpaceOnUse" x1="-15.851" y1="555.965" x2="-15.851" y2="621.645" gradientTransform="matrix(8 0 0 -8 454.8321 4941)">
		<stop  offset="0" style="stop-color:#006DF0"/>
		<stop  offset="1" style="stop-color:#00E7F0"/>
	</linearGradient>
	<path style="fill:url(#SVGID_29_);" d="M320.024,288h16v16h-16V288z"/>
	
		<linearGradient id="SVGID_30_" gradientUnits="userSpaceOnUse" x1="-19.851" y1="555.965" x2="-19.851" y2="621.645" gradientTransform="matrix(8 0 0 -8 454.8321 4941)">
		<stop  offset="0" style="stop-color:#006DF0"/>
		<stop  offset="1" style="stop-color:#00E7F0"/>
	</linearGradient>
	<path style="fill:url(#SVGID_30_);" d="M288.024,288h16v16h-16V288z"/>
	
		<linearGradient id="SVGID_31_" gradientUnits="userSpaceOnUse" x1="-11.851" y1="555.965" x2="-11.851" y2="621.645" gradientTransform="matrix(8 0 0 -8 454.8321 4941)">
		<stop  offset="0" style="stop-color:#006DF0"/>
		<stop  offset="1" style="stop-color:#00E7F0"/>
	</linearGradient>
	<path style="fill:url(#SVGID_31_);" d="M352.024,320h16v16h-16V320z"/>
	
		<linearGradient id="SVGID_32_" gradientUnits="userSpaceOnUse" x1="-7.851" y1="555.965" x2="-7.851" y2="621.645" gradientTransform="matrix(8 0 0 -8 454.8321 4941)">
		<stop  offset="0" style="stop-color:#006DF0"/>
		<stop  offset="1" style="stop-color:#00E7F0"/>
	</linearGradient>
	<path style="fill:url(#SVGID_32_);" d="M384.024,320h16v16h-16V320z"/>
	
		<linearGradient id="SVGID_33_" gradientUnits="userSpaceOnUse" x1="-3.851" y1="555.965" x2="-3.851" y2="621.645" gradientTransform="matrix(8 0 0 -8 454.8321 4941)">
		<stop  offset="0" style="stop-color:#006DF0"/>
		<stop  offset="1" style="stop-color:#00E7F0"/>
	</linearGradient>
	<path style="fill:url(#SVGID_33_);" d="M416.024,320h16v16h-16V320z"/>
	
		<linearGradient id="SVGID_34_" gradientUnits="userSpaceOnUse" x1="-15.851" y1="555.965" x2="-15.851" y2="621.645" gradientTransform="matrix(8 0 0 -8 454.8321 4941)">
		<stop  offset="0" style="stop-color:#006DF0"/>
		<stop  offset="1" style="stop-color:#00E7F0"/>
	</linearGradient>
	<path style="fill:url(#SVGID_34_);" d="M320.024,320h16v16h-16V320z"/>
	
		<linearGradient id="SVGID_35_" gradientUnits="userSpaceOnUse" x1="-19.851" y1="555.965" x2="-19.851" y2="621.645" gradientTransform="matrix(8 0 0 -8 454.8321 4941)">
		<stop  offset="0" style="stop-color:#006DF0"/>
		<stop  offset="1" style="stop-color:#00E7F0"/>
	</linearGradient>
	<path style="fill:url(#SVGID_35_);" d="M288.024,320h16v16h-16V320z"/>
</g>
<linearGradient id="SVGID_36_" gradientUnits="userSpaceOnUse" x1="-26.851" y1="555.965" x2="-26.851" y2="621.645" gradientTransform="matrix(8 0 0 -8 454.8321 4941)">
	<stop  offset="0" style="stop-color:#006DF0"/>
	<stop  offset="1" style="stop-color:#00E7F0"/>
</linearGradient>
<path style="fill:url(#SVGID_36_);" d="M456.024,368c13.255,0,24-10.745,24-24v-64c0-13.255-10.745-24-24-24h-432
	c-13.255,0-24,10.745-24,24v64c0,13.255,10.745,24,24,24h208v32.8c-15.698,3.236-27.964,15.502-31.2,31.2H0.024v16h200.8
	c4.396,21.65,25.51,35.636,47.16,31.24c15.741-3.196,28.044-15.499,31.24-31.24h200.8v-16h-200.8
	c-3.236-15.698-15.502-27.964-31.2-31.2V368H456.024z M264.024,440c0,13.255-10.745,24-24,24c-13.255,0-24-10.745-24-24
	s10.745-24,24-24C253.279,416,264.024,426.745,264.024,440z M16.024,344v-64c0-4.418,3.582-8,8-8h432c4.418,0,8,3.582,8,8v64
	c0,4.418-3.582,8-8,8h-432C19.606,352,16.024,348.418,16.024,344z"/>
<g>
</g>
<g>
</g>
<g>
</g>
<g>
</g>
<g>
</g>
<g>
</g>
<g>
</g>
<g>
</g>
<g>
</g>
<g>
</g>
<g>
</g>
<g>
</g>
<g>
</g>
<g>
</g>
<g>
</g>
</svg>
