<svg height="496pt" viewBox="0 0 496 496" width="496pt" xmlns="http://www.w3.org/2000/svg" xmlns:xlink="http://www.w3.org/1999/xlink"><linearGradient id="a" gradientUnits="userSpaceOnUse" x1="248" x2="248" y1="496" y2="0"><stop offset="0" stop-color="#9f2fff"/><stop offset="1" stop-color="#0bb1d3"/></linearGradient><path d="m478.039062 225.585938c-4.71875-1.210938-9.597656-.898438-14.039062.773437v-24.648437c0-12.136719-8.617188-22.679688-20.023438-24.527344-.167968-.023438-.34375 0-.511718-.023438-29.777344-82.238281-107.519532-137.160156-195.464844-137.160156-33.574219 0-66.480469 8.089844-96 23.449219v-15.449219h16v-48h-160v48h16v26.769531c0 5.167969-1.703125 10.269531-4.800781 14.398438l-11.199219 14.9375c-5.160156 6.871093-8 15.398437-8 24v118.183593c0 11.503907 7.382812 21.429688 17.953125 24.125 4.71875 1.210938 9.597656.898438 14.039063-.773437v24.648437c0 12.136719 8.617187 22.679688 20.023437 24.527344.167969.023438.34375 0 .511719.023438 29.785156 82.238281 107.527344 137.160156 195.472656 137.160156 33.550781 0 66.472656-8.113281 96-23.488281v15.488281h-16v48h160v-48h-16v-26.769531c0-5.167969 1.703125-10.269531 4.800781-14.398438l11.199219-14.9375c5.160156-6.871093 8-15.398437 8-24v-118.183593c0-11.511719-7.382812-21.429688-17.960938-24.125zm-50.421874-45.152344c-1.082032.65625-2.175782 1.300781-3.152344 2.132812-.03125.027344-.074219.058594-.105469.089844-3.359375-3.273438-7.632813-5.558594-12.382813-6.335938-6.992187-1.136718-14.136718.816407-19.511718 5.390626-.160156.136718-.3125.265624-.464844.402343-.152344-.136719-.304688-.265625-.464844-.402343-5.367187-4.566407-12.472656-6.527344-19.511718-5.390626-5.246094.855469-9.847657 3.601563-13.34375 7.441407-4.265626-7.304688-9.253907-14.074219-14.808594-20.320313l45.410156-45.410156c16.382812 17.800781 29.488281 38.847656 38.335938 62.402344zm-171.617188-124.113282c46.382812 1.910157 89.230469 20.304688 121.96875 50.398438l-45.441406 45.441406c-21.03125-18.464844-47.871094-30.023437-76.519532-31.855468v-63.984376zm-16-.046874v64.046874c-19.894531 1.214844-38.902344 6.984376-56 16.910157v-.382813c0-9.199218-3.207031-18.183594-9.03125-25.3125l-17.554688-21.480468c-2.117187-2.582032-3.574218-5.605469-4.460937-8.789063 26.558594-15.167969 56.375-23.722656 87.046875-24.992187zm-216-40.273438h128v16h-128zm40 279.144531c0 2.351563-1.023438 4.574219-2.824219 6.101563-1.816406 1.539062-4.160156 2.179687-6.582031 1.785156-3.699219-.597656-6.59375-4.445312-6.59375-8.742188v-112h-16v64.03125c0 2.710938-1.367188 5.464844-3.574219 7.167969-1.363281 1.0625-3.609375 2.128907-6.515625 1.421875-3.421875-.871094-5.910156-4.496094-5.910156-8.621094v-118.183593c0-5.167969 1.703125-10.273438 4.800781-14.402344l11.199219-14.933594c5.160156-6.875 8-15.402343 8-24v-26.769531h96v26.871094c0 9.207031 3.207031 18.199218 9.03125 25.3125l17.554688 21.472656c3.484374 4.273438 5.414062 9.671875 5.414062 15.183594v84.9375c-6.367188.238281-12.390625-2.25-16.945312-6.707032-4.550782-4.445312-7.054688-10.414062-7.054688-16.78125v-40h-16v132.566407l-.574219.207031c.175781.488281.390625.945312.574219 1.425781v2.648438c0 4.304687-2.894531 8.144531-6.601562 8.742187-2.4375.417969-4.757813-.238281-6.574219-1.78125-1.800781-1.523437-2.824219-3.746094-2.824219-6.097656v-113.710938h-16v113.710938c0 2.351562-1.023438 4.574219-2.824219 6.105469-1.816406 1.535156-4.160156 2.167969-6.574219 1.78125-3.707031-.605469-6.601562-4.4375-6.601562-8.742188v-112.855469h-16zm4.382812 20.421875c1.082032-.65625 2.175782-1.300781 3.152344-2.132812.03125-.027344.074219-.058594.105469-.089844 3.359375 3.273438 7.632813 5.558594 12.382813 6.335938 6.992187 1.136718 14.136718-.816407 19.511718-5.390626.160156-.136718.3125-.265624.464844-.402343.152344.136719.304688.265625.464844.402343 4.367187 3.71875 9.878906 5.710938 15.566406 5.710938 1.304688 0 2.625-.113281 3.9375-.320312 5.261719-.855469 9.871094-3.617188 13.375-7.464844 4.257812 7.320312 9.160156 14.175781 14.695312 20.433594l-45.328124 45.328124c-16.367188-17.808593-29.480469-38.855468-38.328126-62.410156zm171.617188 124.113282c-46.382812-1.910157-89.230469-20.296876-121.96875-50.398438l45.375-45.378906c20.976562 18.457031 47.777344 29.976562 76.585938 31.785156v63.992188zm-96-150.253907v-59.578125c6.785156 5.074219 14.878906 7.9375 23.480469 7.9375.289062 0 .574219 0 .863281-.007812 8.632812-.183594 15.65625-7.371094 15.65625-16v-65.601563c18.832031-13.160156 40.847656-20.175781 64-20.175781 45.535156 0 87.121094 28.28125 104 70.472656v59.679688c-6.984375-5.25-15.3125-8.152344-24.34375-7.9375-8.632812.183594-15.65625 7.371094-15.65625 16v65.609375c-18.824219 13.167969-40.863281 20.175781-64 20.175781-45.871094 0-87.121094-28.222656-104-70.574219zm112 150.300781v-64.039062c19.886719-1.214844 38.894531-6.992188 56-16.910156v.382812c0 9.199219 3.207031 18.183594 9.03125 25.3125l17.554688 21.480469c2.117187 2.582031 3.582031 5.613281 4.460937 8.808594-26.550781 15.140625-56.390625 23.695312-87.046875 24.964843zm216 40.273438h-128v-16h128zm3.199219-97.703125-11.199219 14.933594c-5.160156 6.875-8 15.402343-8 24v26.769531h-96v-26.871094c0-9.207031-3.207031-18.199218-9.03125-25.3125l-17.554688-21.472656c-3.484374-4.273438-5.414062-9.671875-5.414062-15.183594v-84.9375c6.289062-.375 12.382812 2.25 16.945312 6.707032 4.550782 4.445312 7.054688 10.414062 7.054688 16.78125v40h16v-136.855469c0-4.304688 2.894531-8.144531 6.601562-8.742188 2.4375-.394531 4.757813.238281 6.574219 1.78125 1.800781 1.53125 2.824219 3.753907 2.824219 6.105469v113.710938h16v-113.710938c0-2.351562 1.023438-4.574219 2.824219-6.105469 1.816406-1.535156 4.128906-2.183593 6.574219-1.78125 3.707031.605469 6.601562 4.4375 6.601562 8.742188v112.847656h16v-112.847656c0-2.351563 1.023438-4.574219 2.824219-6.101563 1.816406-1.539062 4.144531-2.195312 6.582031-1.785156 3.699219.597656 6.59375 4.445312 6.59375 8.742188v112h16v-64.03125c0-2.710938 1.367188-5.464844 3.574219-7.167969 1.363281-1.0625 3.609375-2.152344 6.515625-1.421875 3.421875.871094 5.910156 4.496094 5.910156 8.621094v118.183593c0 5.167969-1.703125 10.273438-4.800781 14.402344zm-133.246094-263.816406c-10.25-7.449219-21.34375-13.65625-33-18.464844l6.101563-14.800781c12.824218 5.296875 25.042968 12.128906 36.304687 20.304687zm-60.441406-43.296875c5.679687 1.097656 11.328125 2.480468 16.777343 4.113281l-4.578124 15.328125c-4.949219-1.480469-10.070313-2.730469-15.222657-3.722656zm0 0" fill="url(#a)"/></svg>