<svg height="480pt" viewBox="0 0 480.0026 480" width="480pt" xmlns="http://www.w3.org/2000/svg" xmlns:xlink="http://www.w3.org/1999/xlink"><linearGradient id="a"><stop offset="0" stop-color="#006df0"/><stop offset="1" stop-color="#00e7f0"/></linearGradient><linearGradient id="b" gradientUnits="userSpaceOnUse" x1="-.007247" x2="494.160753" xlink:href="#a" y1="167.868135" y2="167.868135"/><linearGradient id="c" gradientUnits="userSpaceOnUse" x1="-.255247" x2="493.920753" xlink:href="#a" y1="271.868135" y2="271.868135"/><linearGradient id="d" gradientUnits="userSpaceOnUse" x1="-.255247" x2="493.920753" xlink:href="#a" y1="207.868135" y2="207.868135"/><linearGradient id="e" gradientUnits="userSpaceOnUse" x1="-.255247" x2="493.920753" xlink:href="#a" y1="425.756135" y2="425.756135"/><path d="m382.824219 128.09375c.777343-5.375 1.167969-10.796875 1.167969-16.226562-.0625-53.273438-37.644532-99.128907-89.867188-109.65625-52.222656-10.527344-104.632812 17.183593-125.332031 66.273437-25.5625-17.480469-59.433594-16.675781-84.140625 1.996094-24.703125 18.675781-34.71875 51.042969-24.875 80.402343-42.511719 17.339844-66.808594 62.335938-57.988282 107.390626 8.820313 45.054687 48.292969 77.566406 94.203126 77.59375h56c4.417968 0 8-3.582032 8-8 0-4.417969-3.582032-8-8-8h-56c-39.632813-.015626-73.289063-29.039063-79.128907-68.242188-5.84375-39.203125 17.886719-76.777344 55.792969-88.347656 2.234375-.6875 4.058594-2.316406 4.988281-4.457032.933594-2.144531.882813-4.585937-.140625-6.6875-3.660156-7.5625-5.546875-15.863281-5.511718-24.265624.019531-22.472657 13.460937-42.757813 34.148437-51.539063 20.683594-8.78125 44.617187-4.359375 60.796875 11.234375 2.011719 1.929688 4.878906 2.671875 7.574219 1.960938 2.695312-.707032 4.824219-2.769532 5.625-5.4375 15.082031-49.597657 66.820312-78.261719 116.867187-64.753907 50.046875 13.511719 80.332032 64.316407 68.40625 114.769531-.59375 2.488282.042969 5.113282 1.710938 7.054688 1.652344 1.964844 4.164062 2.996094 6.71875 2.761719.738281-.050781 1.394531-.050781 2.152344-.050781 48.601562 0 88 39.398437 88 88 0 48.601562-39.398438 88-88 88h-48.925782c-4.421875 0-8 3.582031-8 8 0 4.417968 3.578125 8 8 8h48.925782c56.113281.007812 102.109374-44.5 103.953124-100.582032 1.84375-56.078125-41.128906-103.511718-97.121093-107.191406zm0 0" fill="url(#b)"/><path d="m239.992188 439.867188c2.890624 0 5.558593-1.558594 6.976562-4.078126 3.960938-7.066406 97.023438-173.433593 97.023438-227.921874 0-57.4375-46.5625-104-104-104s-104 46.5625-104 104c0 54.488281 93.066406 220.855468 97.023437 227.921874 1.417969 2.519532 4.085937 4.078126 6.976563 4.078126zm0-320c48.578124.058593 87.941406 39.421874 88 88 0 42.191406-66.0625 167.105468-88 207.410156-21.933594-40.304688-88-165.21875-88-207.410156.058593-48.578126 39.421874-87.941407 88-88zm0 0" fill="url(#c)"/><path d="m279.992188 207.867188c0-22.089844-17.90625-40-40-40-22.089844 0-40 17.910156-40 40 0 22.09375 17.910156 40 40 40 22.082031-.027344 39.972656-17.917969 40-40zm-64 0c0-13.253907 10.746093-24 24-24 13.253906 0 24 10.746093 24 24 0 13.253906-10.746094 24-24 24-13.253907 0-24-10.746094-24-24zm0 0" fill="url(#d)"/><path d="m303.28125 371.699219c-4.386719-.554688-8.390625 2.546875-8.949219 6.933593-.554687 4.382813 2.546875 8.390626 6.933594 8.949219 58.925781 7.484375 90.726563 24.285157 90.726563 36.285157 0 16.703124-57.824219 40-152 40-94.175782 0-152-23.296876-152-40 0-11.816407 31.144531-28.464844 88.855468-36.046876 2.847656-.359374 5.285156-2.210937 6.386719-4.859374 1.105469-2.648438.707031-5.683594-1.042969-7.957032-1.75-2.273437-4.582031-3.4375-7.421875-3.046875-64.375 8.464844-102.777343 27.910157-102.777343 51.910157 0 36.800781 84.511718 56 168 56 83.488281 0 168-19.199219 168-56 0-24.34375-39.144532-43.839844-104.710938-52.167969zm0 0" fill="url(#e)"/></svg>