<?xml version="1.0" encoding="iso-8859-1"?>
<!-- Generator: Adobe Illustrator 22.1.0, SVG Export Plug-In . SVG Version: 6.00 Build 0)  -->
<svg xmlns="http://www.w3.org/2000/svg" xmlns:xlink="http://www.w3.org/1999/xlink" version="1.1" id="Layer_1_1_" x="0px" y="0px" viewBox="0 0 64 64" style="enable-background:new 0 0 64 64;" xml:space="preserve" width="512" height="512">
<linearGradient id="SVGID_1_" gradientUnits="userSpaceOnUse" x1="32" y1="63" x2="32" y2="1">
	<stop offset="0" style="stop-color:#9F2FFF"/>
	<stop offset="1" style="stop-color:#0BB1D3"/>
</linearGradient>
<path style="fill:url(#SVGID_1_);" d="M60,9h-6v1.176c-0.908-0.916-1.864-1.772-2.867-2.561C52.855,6.683,54.484,5.563,56,4.272V7h2  V1h-6v2h2.414c-1.577,1.303-3.285,2.402-5.089,3.293C44.261,2.876,38.254,1,32,1C14.907,1,1,14.907,1,32  c0,3.112,0.485,6.164,1.388,9.106C1.586,41.366,1,42.112,1,43v2c0,1.103,0.897,2,2,2v2c0,0.366,0.106,0.705,0.278,1  C3.106,50.295,3,50.634,3,51v2c0,1.103,0.897,2,2,2v2c-1.103,0-2,0.897-2,2v2c0,1.103,0.897,2,2,2h19  c0.602,0,1.137-0.273,1.504-0.695C27.629,62.758,29.808,63,32,63c17.093,0,31-13.907,31-31c0-4.66-1.013-9.134-3-13.307V9z M56,11h2  v16h-2V11z M31,3.025v57.945c-1.687-0.057-3.361-0.26-5-0.605V59c1.103,0,2-0.897,2-2v-2c0-1.103-0.897-2-2-2v-2  c0-0.366-0.106-0.705-0.278-1C25.894,49.705,26,49.366,26,49v-2c0-1.103-0.897-2-2-2v-2h2c1.103,0,2-0.897,2-2v-2  c0-1.103-0.897-2-2-2H7c-1.103,0-2,0.897-2,2v2H4.446C3.5,38.102,3,35.081,3,32C3,16.345,15.471,3.555,31,3.025z M5,51h19l0.001,2H7  H5V51z M3,43h4h15l0.001,2H5H3V43z M22,41H7v-2h19l0.001,2H22z M22,47h2l0.001,2H24H5v-2H22z M7,55h17h2l0.001,2H24H7V55z M5,61v-2  h2h17l0.001,2H5z M33,60.975V33h27.975C60.456,48.196,48.196,60.456,33,60.975z M60.972,31H33V3.027  c5.052,0.173,9.903,1.643,14.126,4.228C44.153,8.396,40.967,9,37.687,9H35v2h2.687c4.002,0,7.874-0.833,11.429-2.402  C50.893,9.9,52.534,11.41,54,13.116V27h-2V14h-6v13h-2V17h-6v10h-3v2h25v-4.554C60.573,26.572,60.898,28.762,60.972,31z M50,27h-2  V16h2V27z M42,27h-2v-8h2V27z M39,41h2v2h-2V41z M45,41h2v2h-2V41z M53,41v2h-2v-2H53z M22,27c0-1.103-0.897-2-2-2h-4  c-2.206,0-4-1.794-4-4s1.794-4,4-4h1v-2h2v2h1c2.206,0,4,1.794,4,4h-2c0-1.103-0.897-2-2-2h-4c-1.103,0-2,0.897-2,2s0.897,2,2,2h4  c2.206,0,4,1.794,4,4s-1.794,4-4,4h-1v2h-2v-2h-1c-2.206,0-4-1.794-4-4h2c0,1.103,0.897,2,2,2h4C21.103,29,22,28.103,22,27z"/>
</svg>
