<?xml version="1.0" encoding="iso-8859-1"?>
<!-- Generator: Adobe Illustrator 19.0.0, SVG Export Plug-In . SVG Version: 6.00 Build 0)  -->
<svg version="1.1" id="Capa_1" xmlns="http://www.w3.org/2000/svg" xmlns:xlink="http://www.w3.org/1999/xlink" x="0px" y="0px"
	 viewBox="0 0 480 480" style="enable-background:new 0 0 480 480;" xml:space="preserve">
<g>
	
		<linearGradient id="SVGID_1_" gradientUnits="userSpaceOnUse" x1="-26.875" y1="569.913" x2="-26.875" y2="597.834" gradientTransform="matrix(8 0 0 -8 455 4905)">
		<stop  offset="0" style="stop-color:#006DF0"/>
		<stop  offset="1" style="stop-color:#00E7F0"/>
	</linearGradient>
	<path style="fill:url(#SVGID_1_);" d="M472,188c4.418,0,8-3.582,8-8v-32c0-4.418-3.582-8-8-8H8c-4.418,0-8,3.582-8,8v32
		c0,4.418,3.582,8,8,8s8,3.582,8,8s-3.582,8-8,8s-8,3.582-8,8v96c0,4.418,3.582,8,8,8h8v16c0,4.418,3.582,8,8,8h144
		c4.418,0,8-3.582,8-8v-16h16v16c0,4.418,3.582,8,8,8h256c4.418,0,8-3.582,8-8v-16h8c4.418,0,8-3.582,8-8v-96c0-4.418-3.582-8-8-8
		s-8-3.582-8-8S467.582,188,472,188z M160,324H32v-8h128V324z M448,324H208v-8h240V324z M464,173.368
		c-12.499,4.411-19.056,18.12-14.645,30.619c2.416,6.845,7.8,12.229,14.645,14.645V300H16v-81.368c0.272-0.096,0.512-0.24,0.8-0.344
		c0.448-0.176,0.872-0.376,1.304-0.584c0.886-0.414,1.746-0.882,2.576-1.4c0.392-0.24,0.8-0.48,1.16-0.744
		c0.945-0.671,1.84-1.409,2.68-2.208c0.176-0.168,0.376-0.312,0.544-0.48c0.977-0.989,1.869-2.06,2.664-3.2
		c0.216-0.32,0.4-0.672,0.608-1c0.549-0.871,1.04-1.777,1.472-2.712c0.2-0.44,0.376-0.88,0.552-1.336
		c0.363-0.939,0.663-1.901,0.896-2.88c0.112-0.44,0.24-0.864,0.32-1.312c0.595-2.903,0.595-5.897,0-8.8
		c-0.08-0.448-0.208-0.872-0.32-1.312c-0.233-0.979-0.533-1.941-0.896-2.88c-0.176-0.456-0.352-0.904-0.552-1.344
		c-0.434-0.931-0.925-1.834-1.472-2.704c-0.208-0.328-0.392-0.68-0.608-1c-0.795-1.14-1.687-2.211-2.664-3.2
		c-0.168-0.168-0.368-0.312-0.544-0.48c-0.84-0.799-1.735-1.537-2.68-2.208c-0.376-0.272-0.8-0.504-1.16-0.744
		c-0.83-0.518-1.69-0.986-2.576-1.4c-0.432-0.2-0.856-0.408-1.304-0.584c-0.264-0.104-0.504-0.248-0.8-0.344V156h448V173.368z"/>
	
		<linearGradient id="SVGID_2_" gradientUnits="userSpaceOnUse" x1="-26.875" y1="569.913" x2="-26.875" y2="597.834" gradientTransform="matrix(8 0 0 -8 455 4905)">
		<stop  offset="0" style="stop-color:#006DF0"/>
		<stop  offset="1" style="stop-color:#00E7F0"/>
	</linearGradient>
	<path style="fill:url(#SVGID_2_);" d="M216,268h48c4.418,0,8-3.582,8-8v-80c0-4.418-3.582-8-8-8h-48c-4.418,0-8,3.582-8,8v80
		C208,264.418,211.582,268,216,268z M224,188h32v64h-32V188z"/>
</g>
<g>
	
		<linearGradient id="SVGID_3_" gradientUnits="userSpaceOnUse" x1="-16.875" y1="569.913" x2="-16.875" y2="597.834" gradientTransform="matrix(8 0 0 -8 455 4905)">
		<stop  offset="0" style="stop-color:#006DF0"/>
		<stop  offset="1" style="stop-color:#00E7F0"/>
	</linearGradient>
	<path style="fill:url(#SVGID_3_);" d="M296,268h48c4.418,0,8-3.582,8-8v-80c0-4.418-3.582-8-8-8h-48c-4.418,0-8,3.582-8,8v80
		C288,264.418,291.582,268,296,268z M304,188h32v64h-32V188z"/>
	
		<linearGradient id="SVGID_4_" gradientUnits="userSpaceOnUse" x1="-46.875" y1="569.913" x2="-46.875" y2="597.834" gradientTransform="matrix(8 0 0 -8 455 4905)">
		<stop  offset="0" style="stop-color:#006DF0"/>
		<stop  offset="1" style="stop-color:#00E7F0"/>
	</linearGradient>
	<path style="fill:url(#SVGID_4_);" d="M56,268h48c4.418,0,8-3.582,8-8v-80c0-4.418-3.582-8-8-8H56c-4.418,0-8,3.582-8,8v80
		C48,264.418,51.582,268,56,268z M64,188h32v64H64V188z"/>
	
		<linearGradient id="SVGID_5_" gradientUnits="userSpaceOnUse" x1="-36.875" y1="569.913" x2="-36.875" y2="597.834" gradientTransform="matrix(8 0 0 -8 455 4905)">
		<stop  offset="0" style="stop-color:#006DF0"/>
		<stop  offset="1" style="stop-color:#00E7F0"/>
	</linearGradient>
	<path style="fill:url(#SVGID_5_);" d="M136,268h48c4.418,0,8-3.582,8-8v-80c0-4.418-3.582-8-8-8h-48c-4.418,0-8,3.582-8,8v80
		C128,264.418,131.582,268,136,268z M144,188h32v64h-32V188z"/>
	
		<linearGradient id="SVGID_6_" gradientUnits="userSpaceOnUse" x1="-6.875" y1="569.913" x2="-6.875" y2="597.834" gradientTransform="matrix(8 0 0 -8 455 4905)">
		<stop  offset="0" style="stop-color:#006DF0"/>
		<stop  offset="1" style="stop-color:#00E7F0"/>
	</linearGradient>
	<path style="fill:url(#SVGID_6_);" d="M376,268h48c4.418,0,8-3.582,8-8v-80c0-4.418-3.582-8-8-8h-48c-4.418,0-8,3.582-8,8v80
		C368,264.418,371.582,268,376,268z M384,188h32v64h-32V188z"/>
</g>
<g>
</g>
<g>
</g>
<g>
</g>
<g>
</g>
<g>
</g>
<g>
</g>
<g>
</g>
<g>
</g>
<g>
</g>
<g>
</g>
<g>
</g>
<g>
</g>
<g>
</g>
<g>
</g>
<g>
</g>
</svg>
